<svg width="144" height="47" viewBox="0 0 144 47" fill="none" xmlns="http://www.w3.org/2000/svg">
<path d="M9.21801 46.1797C8.84708 46.1797 8.48513 46.175 8.11711 46.1668C7.35475 46.157 6.59417 46.0912 5.84161 45.9699C5.13988 45.8501 4.46009 45.6271 3.82467 45.3084C3.19508 44.9924 2.62084 44.578 2.12395 44.0811C1.61987 43.59 1.2002 43.0205 0.881575 42.3951C0.559435 41.7656 0.336495 41.0908 0.220522 40.3943C0.0952798 39.6459 0.0275188 38.8892 0.0178229 38.1306C0.0101045 37.876 0 37.0282 0 37.0282V9.13857C0 9.13857 0.010762 8.30382 0.0178838 8.05858C0.0271675 7.30121 0.0945345 6.54564 0.219402 5.7984C0.33559 5.09999 0.558702 4.42329 0.881015 3.79173C1.19847 3.16672 1.61581 2.59676 2.11686 2.10396C2.61734 1.60648 3.19341 1.18993 3.82408 0.869519C4.45804 0.551855 5.13654 0.330481 5.83685 0.212813C6.59188 0.0903507 7.3551 0.0241416 8.12011 0.0147413L9.2186 0H134.33L135.442 0.0153329C136.2 0.0242661 136.956 0.0898845 137.704 0.21163C138.411 0.330774 139.097 0.553693 139.738 0.873057C141.002 1.51878 142.03 2.54039 142.678 3.79467C142.995 4.42188 143.215 5.09306 143.33 5.78543C143.456 6.5388 143.527 7.30031 143.541 8.06389C143.545 8.4058 143.545 8.77307 143.545 9.13857C143.555 9.59131 143.555 10.0222 143.555 10.4567V35.7242C143.555 36.1628 143.555 36.5908 143.545 37.0223C143.545 37.4149 143.545 37.7746 143.54 38.1447C143.526 38.8947 143.456 39.6426 143.332 40.3825C143.219 41.084 142.997 41.764 142.675 42.3987C142.354 43.0173 141.937 43.5819 141.438 44.0717C140.941 44.5712 140.366 44.9881 139.735 45.3061C139.095 45.6273 138.411 45.851 137.704 45.9699C136.952 46.0918 136.191 46.1576 135.428 46.1668C135.072 46.175 134.699 46.1797 134.336 46.1797L133.016 46.1822L9.21801 46.1797Z" fill="black"/>
<path d="M29.0896 23.453C29.1027 22.4453 29.3726 21.4572 29.8742 20.5808C30.3758 19.7043 31.0928 18.9679 31.9585 18.4401C31.4085 17.6612 30.683 17.0202 29.8396 16.568C28.9961 16.1158 28.058 15.8649 27.0996 15.8351C25.0553 15.6223 23.0734 17.0483 22.0317 17.0483C20.9697 17.0483 19.3658 15.8563 17.6386 15.8915C16.5214 15.9273 15.4327 16.2495 14.4784 16.8266C13.5241 17.4038 12.7368 18.2163 12.1933 19.1849C9.83879 23.2275 11.595 29.1687 13.8504 32.4365C14.9788 34.0366 16.2976 35.8239 18.0232 35.7606C19.7118 35.6911 20.3425 34.6927 22.3808 34.6927C24.4002 34.6927 24.9919 35.7606 26.7525 35.7203C28.5645 35.6911 29.7061 34.113 30.795 32.4978C31.6057 31.3576 32.2296 30.0975 32.6435 28.7641C31.5908 28.3226 30.6924 27.5835 30.0605 26.639C29.4285 25.6945 29.0908 24.5865 29.0896 23.453Z" fill="white"/>
<path d="M25.7649 13.686C26.7529 12.5098 27.2396 10.998 27.1217 9.47168C25.6123 9.6289 24.2181 10.3443 23.2168 11.4753C22.7272 12.0279 22.3522 12.6707 22.1133 13.3671C21.8744 14.0634 21.7762 14.7996 21.8244 15.5336C22.5794 15.5413 23.3263 15.379 24.0088 15.059C24.6914 14.7389 25.2918 14.2695 25.7649 13.686Z" fill="white"/>
<path d="M50.4348 31.7097H44.6723L43.2884 35.7619H40.8477L46.3058 20.7695H48.8417L54.2998 35.7619H51.8174L50.4348 31.7097ZM45.2691 29.8397H49.8368L47.5851 23.2632H47.5221L45.2691 29.8397Z" fill="white"/>
<path d="M66.0881 30.2972C66.0881 33.6939 64.2548 35.8763 61.4883 35.8763C60.7875 35.9126 60.0905 35.7525 59.4772 35.4143C58.8639 35.0761 58.359 34.5734 58.0204 33.9639H57.968V39.3779H55.7056V24.8312H57.8955V26.6493H57.9371C58.2913 26.0426 58.8048 25.5426 59.4227 25.2023C60.0407 24.862 60.7402 24.6943 61.4467 24.7169C64.2441 24.7169 66.0881 26.9098 66.0881 30.2972ZM63.7626 30.2972C63.7626 28.0842 62.6094 26.6292 60.8499 26.6292C59.1212 26.6292 57.9585 28.1148 57.9585 30.2972C57.9585 32.4996 59.1212 33.9745 60.8499 33.9745C62.6094 33.9745 63.7626 32.5302 63.7626 30.2972Z" fill="white"/>
<path d="M78.2189 30.2971C78.2189 33.6939 76.3857 35.8763 73.6192 35.8763C72.9184 35.9126 72.2214 35.7525 71.6081 35.4143C70.9947 35.0761 70.4899 34.5734 70.1512 33.9639H70.0989V39.3779H67.8364V24.8312H70.0263V26.6493H70.0679C70.4222 26.0426 70.9356 25.5426 71.5536 25.2023C72.1716 24.862 72.871 24.6943 73.5775 24.7169C76.375 24.7169 78.2189 26.9098 78.2189 30.2971ZM75.8935 30.2971C75.8935 28.0841 74.7403 26.6292 72.9807 26.6292C71.2521 26.6292 70.0894 28.1148 70.0894 30.2971C70.0894 32.4996 71.2521 33.9745 72.9807 33.9745C74.7403 33.9745 75.8935 32.5302 75.8935 30.2971H75.8935Z" fill="white"/>
<path d="M86.2364 31.5847C86.404 33.0714 87.8604 34.0476 89.8506 34.0476C91.7575 34.0476 93.1295 33.0714 93.1295 31.7308C93.1295 30.5671 92.302 29.8703 90.3428 29.3928L88.3835 28.9248C85.6075 28.2598 84.3187 26.9723 84.3187 24.8831C84.3187 22.2963 86.5919 20.5195 89.8197 20.5195C93.0141 20.5195 95.2041 22.2963 95.2778 24.8831H92.9939C92.8572 23.3869 91.6101 22.4838 89.7875 22.4838C87.965 22.4838 86.7178 23.3975 86.7178 24.7275C86.7178 25.7874 87.5144 26.4111 89.463 26.8885L91.1286 27.2941C94.2303 28.0216 95.5191 29.2572 95.5191 31.4502C95.5191 34.255 93.2662 36.0118 89.6829 36.0118C86.3303 36.0118 84.0666 34.2963 83.9204 31.5846L86.2364 31.5847Z" fill="white"/>
<path d="M100.403 22.2446V24.8314H102.499V26.6082H100.403V32.6341C100.403 33.5703 100.822 34.0065 101.744 34.0065C101.992 34.0022 102.241 33.9849 102.488 33.9546V35.7208C102.074 35.7975 101.653 35.8323 101.231 35.8245C98.9997 35.8245 98.1295 34.9933 98.1295 32.8734V26.6082H96.5269V24.8314H98.1294V22.2446H100.403Z" fill="white"/>
<path d="M103.711 30.2971C103.711 26.8579 105.754 24.6968 108.939 24.6968C112.135 24.6968 114.168 26.8579 114.168 30.2971C114.168 33.7457 112.145 35.8974 108.939 35.8974C105.734 35.8974 103.711 33.7457 103.711 30.2971ZM111.862 30.2971C111.862 27.9379 110.772 26.5455 108.939 26.5455C107.106 26.5455 106.017 27.9485 106.017 30.2971C106.017 32.6657 107.106 34.0476 108.939 34.0476C110.772 34.0476 111.862 32.6657 111.862 30.2971H111.862Z" fill="white"/>
<path d="M116.033 24.8311H118.191V26.6916H118.243C118.389 26.1105 118.732 25.597 119.215 25.2374C119.698 24.8777 120.291 24.6939 120.894 24.7167C121.155 24.7158 121.415 24.7439 121.669 24.8005V26.8991C121.34 26.7994 120.997 26.7536 120.653 26.7635C120.324 26.7503 119.996 26.8078 119.692 26.932C119.388 27.0562 119.115 27.2442 118.891 27.4831C118.667 27.7221 118.497 28.0062 118.395 28.3161C118.292 28.626 118.258 28.9542 118.295 29.2784V35.7618H116.033L116.033 24.8311Z" fill="white"/>
<path d="M132.102 32.5514C131.797 34.5357 129.849 35.8974 127.356 35.8974C124.149 35.8974 122.159 33.7669 122.159 30.349C122.159 26.9204 124.16 24.6968 127.261 24.6968C130.31 24.6968 132.228 26.7742 132.228 30.0884V30.8571H124.443V30.9927C124.407 31.395 124.458 31.8003 124.592 32.1816C124.726 32.5629 124.941 32.9115 125.221 33.2044C125.501 33.4972 125.841 33.7275 126.219 33.88C126.596 34.0325 127.001 34.1037 127.408 34.0888C127.943 34.1385 128.479 34.0157 128.938 33.7387C129.396 33.4617 129.753 33.0453 129.953 32.5514L132.102 32.5514ZM124.454 29.289H129.964C129.984 28.9273 129.929 28.5654 129.802 28.2259C129.674 27.8864 129.477 27.5766 129.224 27.3161C128.97 27.0556 128.664 26.85 128.327 26.7121C127.989 26.5742 127.626 26.507 127.261 26.5148C126.892 26.5126 126.527 26.5828 126.186 26.7214C125.845 26.8599 125.535 27.064 125.274 27.3219C125.013 27.5799 124.806 27.8865 124.666 28.2241C124.525 28.5617 124.453 28.9237 124.454 29.2891V29.289Z" fill="white"/>
<path d="M43.6625 12.5298H44.6338C44.801 12.5505 44.9707 12.5366 45.1322 12.4889C45.2937 12.4413 45.4435 12.361 45.5722 12.2532C45.7009 12.1453 45.8056 12.0121 45.8798 11.8621C45.954 11.7121 45.9961 11.5484 46.0034 11.3815C46.0034 10.7171 45.4993 10.2879 44.6445 10.2879C44.4732 10.2642 44.2988 10.2747 44.1317 10.3189C43.9645 10.3631 43.808 10.4401 43.6714 10.5453C43.5348 10.6505 43.4208 10.7817 43.3361 10.9313C43.2515 11.0809 43.1979 11.2458 43.1786 11.4163H42.1121C42.1305 11.1068 42.2129 10.8045 42.3542 10.528C42.4955 10.2515 42.6927 10.0068 42.9334 9.80916C43.1742 9.61152 43.4535 9.46514 43.7538 9.37916C44.054 9.29317 44.369 9.26941 44.6789 9.30936C46.1091 9.30936 47.1162 10.1034 47.1162 11.2465C47.1195 11.6294 46.9903 12.0019 46.7502 12.3018C46.51 12.6016 46.1734 12.8107 45.7965 12.8942V12.979C46.2433 12.9987 46.6641 13.193 46.9668 13.5194C47.2696 13.8458 47.4297 14.2779 47.4122 14.721C47.3791 15.0396 47.2823 15.3485 47.1273 15.6295C46.9723 15.9105 46.7623 16.158 46.5096 16.3574C46.257 16.5569 45.9667 16.7043 45.6558 16.7911C45.3449 16.8779 45.0197 16.9022 44.6992 16.8627C44.378 16.9062 44.0513 16.885 43.7386 16.8005C43.4258 16.7161 43.1334 16.57 42.8788 16.3711C42.6242 16.1722 42.4126 15.9245 42.2565 15.6427C42.1005 15.3609 42.0033 15.0509 41.9707 14.7311H43.0538C43.1192 15.4202 43.7576 15.8647 44.6992 15.8647C45.6408 15.8647 46.2554 15.3654 46.2554 14.6616C46.2554 13.9477 45.6764 13.5079 44.6647 13.5079H43.6625V12.5298Z" fill="white"/>
<path d="M48.6426 15.1512C48.6426 14.1726 49.3785 13.6084 50.6815 13.5282L52.1664 13.4433V12.9741C52.1664 12.3999 51.7848 12.0757 51.0441 12.0757C50.4402 12.0757 50.0229 12.2956 49.9016 12.6799H48.8542C48.9648 11.7462 49.8517 11.1472 51.0952 11.1472C52.4696 11.1472 53.2447 11.8257 53.2447 12.9741V16.6886H52.2021V15.9246H52.1165C51.9427 16.1986 51.6988 16.4221 51.4095 16.572C51.1202 16.722 50.796 16.7931 50.4699 16.7782C50.2398 16.8019 50.0072 16.7776 49.7871 16.7067C49.567 16.6358 49.3644 16.52 49.1922 16.3667C49.0201 16.2134 48.8822 16.0261 48.7875 15.8167C48.6929 15.6073 48.6435 15.3806 48.6426 15.1512ZM52.1664 14.6866V14.2321L50.8277 14.317C50.0727 14.3671 49.7303 14.6218 49.7303 15.101C49.7303 15.5903 50.1583 15.8751 50.7469 15.8751C50.9193 15.8924 51.0935 15.8751 51.2591 15.8243C51.4247 15.7735 51.5783 15.6902 51.7107 15.5793C51.8431 15.4684 51.9517 15.3322 52.03 15.1789C52.1083 15.0255 52.1547 14.8581 52.1664 14.6866Z" fill="white"/>
<path d="M56.117 12.1553V16.6886H55.0352V11.2522H58.6446V12.1553L56.117 12.1553Z" fill="white"/>
<path d="M65.2008 13.9677C65.2008 15.695 64.3199 16.7779 62.936 16.7779C62.5963 16.8009 62.2571 16.7272 61.9582 16.5654C61.6593 16.4037 61.4133 16.1606 61.249 15.8648H61.1634V18.4957H60.0815V11.2519H61.123V12.1503H61.2039C61.371 11.8442 61.6203 11.5899 61.9241 11.4154C62.2279 11.2409 62.5744 11.1531 62.9253 11.1617C64.3199 11.1617 65.2008 12.2399 65.2008 13.9677ZM64.0881 13.9677C64.0881 12.8194 63.54 12.1255 62.6234 12.1255C61.7128 12.1255 61.1432 12.8341 61.1432 13.9725C61.1432 15.1055 61.7127 15.8147 62.6186 15.8147C63.54 15.8147 64.0881 15.1208 64.0881 13.9677Z" fill="white"/>
<path d="M66.6408 18.6358V17.712C66.7579 17.7268 66.8759 17.7335 66.9939 17.7321C67.2244 17.749 67.4531 17.6809 67.6361 17.5409C67.8191 17.4009 67.9435 17.1988 67.9854 16.9734L68.0663 16.7087L66.082 11.2522H67.2602L68.6346 15.5703H68.7202L70.0898 11.2522H71.237L69.1934 16.9133C68.725 18.2361 68.2066 18.6606 67.0891 18.6606C66.9987 18.6606 66.7419 18.6505 66.6408 18.6358Z" fill="white"/>
<path d="M72.0801 15.1456H73.1572C73.263 15.6249 73.716 15.8748 74.3496 15.8748C75.0701 15.8748 75.5124 15.56 75.5124 15.0707C75.5124 14.5467 75.1153 14.2967 74.3496 14.2967H73.5293V13.4632H74.3354C74.9893 13.4632 75.3221 13.2138 75.3221 12.7593C75.3221 12.3602 75 12.0554 74.3354 12.0554C73.7302 12.0554 73.288 12.3101 73.2178 12.7393H72.1752C72.2531 12.2461 72.5231 11.803 72.9271 11.5053C73.3311 11.2075 73.8368 11.0788 74.3354 11.147C75.6384 11.147 76.3838 11.7312 76.3838 12.6497C76.3899 12.9054 76.3073 13.1555 76.1497 13.3581C75.9922 13.5607 75.7693 13.7035 75.5183 13.7627V13.8475C75.8171 13.8858 76.0914 14.0314 76.2891 14.2569C76.4867 14.4824 76.5941 14.772 76.5907 15.0708C76.5907 16.1042 75.7038 16.788 74.3496 16.788C73.1524 16.788 72.18 16.2439 72.0801 15.1456Z" fill="white"/>
<path d="M78.1494 16.6886V11.2522H79.2218V14.9915H79.3074L81.8337 11.2522H82.9061V16.6887H81.8337V12.9294H81.7529L79.2218 16.6887L78.1494 16.6886Z" fill="white"/>
<path d="M88.814 12.1553H87.0877V16.6886H86.0046V12.1553H84.2783V11.2522H88.814V12.1553Z" fill="white"/>
<path d="M94.6422 15.2206C94.4948 15.7174 94.1761 16.1471 93.7417 16.4346C93.3073 16.722 92.7849 16.849 92.2656 16.7934C91.9045 16.8028 91.5456 16.7342 91.2138 16.5923C90.8821 16.4504 90.5854 16.2387 90.3445 15.9717C90.1036 15.7047 89.9241 15.3889 89.8186 15.0462C89.713 14.7036 89.6839 14.3422 89.7333 13.9873C89.6852 13.6313 89.7148 13.2692 89.8201 12.9255C89.9254 12.5818 90.1039 12.2646 90.3436 11.9952C90.5833 11.7259 90.8785 11.5108 91.2093 11.3645C91.5401 11.2181 91.8987 11.144 92.2609 11.1471C93.7862 11.1471 94.7076 12.1805 94.7076 13.8877V14.2621H90.8366V14.3222C90.8195 14.5217 90.8446 14.7226 90.9104 14.912C90.9763 15.1013 91.0813 15.2749 91.2188 15.4215C91.3563 15.5682 91.5232 15.6848 91.7088 15.7636C91.8944 15.8425 92.0946 15.882 92.2966 15.8796C92.5552 15.9103 92.8171 15.864 93.0492 15.7466C93.2812 15.6293 93.4728 15.4462 93.5996 15.2205L94.6422 15.2206ZM90.8366 13.4686H93.6043C93.618 13.2862 93.593 13.103 93.5311 12.9308C93.4691 12.7585 93.3715 12.601 93.2446 12.4684C93.1176 12.3358 92.9641 12.231 92.7939 12.1607C92.6236 12.0904 92.4405 12.0562 92.2561 12.0602C92.069 12.0577 91.8832 12.0924 91.7098 12.1623C91.5363 12.2322 91.3788 12.3358 91.2465 12.4671C91.1142 12.5984 91.0097 12.7547 90.9393 12.9267C90.8689 13.0987 90.834 13.2829 90.8366 13.4686H90.8366Z" fill="white"/>
<path d="M99.2275 11.2522H101.699C102.772 11.2522 103.4 11.791 103.4 12.6346C103.402 12.9022 103.311 13.1624 103.142 13.3714C102.974 13.5804 102.738 13.7257 102.474 13.7829V13.8678C102.795 13.8879 103.095 14.0291 103.313 14.2624C103.531 14.4956 103.65 14.803 103.647 15.1211C103.647 16.0696 102.927 16.6886 101.724 16.6886H99.2275V11.2522ZM100.3 12.0757V13.4835H101.372C102.026 13.4835 102.339 13.2341 102.339 12.7743C102.339 12.3504 102.067 12.0757 101.492 12.0757L100.3 12.0757ZM100.3 14.2723V15.8651H101.583C102.222 15.8651 102.565 15.5851 102.565 15.0711C102.565 14.5269 102.177 14.2723 101.447 14.2723L100.3 14.2723Z" fill="white"/>
</svg>
