<svg width="140" height="45" viewBox="0 0 140 45" fill="none" xmlns="http://www.w3.org/2000/svg">
<path d="M133.915 0H5.15057C2.30599 0 0 2.51055 0 5.60748V39.2523C0 42.3493 2.30599 44.8598 5.15057 44.8598H133.915C136.759 44.8598 139.065 42.3493 139.065 39.2523V5.60748C139.065 2.51055 136.759 0 133.915 0Z" fill="black"/>
<path d="M69.0514 25.3911C68.1817 25.3932 67.3321 25.6536 66.6101 26.1394C65.8881 26.6253 65.3261 27.3147 64.9951 28.1206C64.6642 28.9264 64.5792 29.8125 64.7509 30.6668C64.9225 31.5211 65.3432 32.3052 65.9596 32.9199C66.576 33.5347 67.3606 33.9524 68.214 34.1204C69.0674 34.2884 69.9514 34.1991 70.7541 33.8637C71.5568 33.5284 72.2423 32.962 72.7238 32.2363C73.2053 31.5106 73.4612 30.6582 73.4592 29.7868C73.4676 29.2055 73.3592 28.6284 73.1404 28.0899C72.9216 27.5514 72.5969 27.0626 72.1856 26.6524C71.7743 26.2423 71.2849 25.9193 70.7465 25.7026C70.208 25.4859 69.6316 25.38 69.0514 25.3911V25.3911ZM69.0514 32.4552C68.5183 32.4925 67.9864 32.3684 67.5247 32.0988C67.063 31.8292 66.6929 31.4267 66.4625 30.9435C66.2322 30.4604 66.1522 29.919 66.233 29.3898C66.3138 28.8605 66.5517 28.3678 66.9156 27.9758C67.2796 27.5838 67.7529 27.3105 68.2739 27.1916C68.7949 27.0726 69.3396 27.1134 69.8372 27.3088C70.3347 27.5041 70.7621 27.8449 71.0638 28.2868C71.3655 28.7287 71.5275 29.2514 71.5288 29.7868C71.5455 30.126 71.4941 30.4652 71.3778 30.7842C71.2616 31.1033 71.0827 31.3958 70.8518 31.6445C70.6209 31.8932 70.3427 32.0931 70.0335 32.2323C69.7242 32.3715 69.3903 32.4473 69.0514 32.4552ZM59.4308 25.3911C58.561 25.3932 57.7115 25.6536 56.9894 26.1394C56.2674 26.6253 55.7054 27.3147 55.3745 28.1206C55.0435 28.9264 54.9585 29.8125 55.1302 30.6668C55.3019 31.5211 55.7225 32.3052 56.339 32.9199C56.9554 33.5347 57.7399 33.9524 58.5933 34.1204C59.4467 34.2884 60.3307 34.1991 61.1335 33.8637C61.9362 33.5284 62.6217 32.962 63.1032 32.2363C63.5846 31.5106 63.8405 30.6582 63.8385 29.7868C63.8469 29.2055 63.7385 28.6284 63.5197 28.0899C63.3009 27.5514 62.9762 27.0626 62.565 26.6524C62.1537 26.2423 61.6643 25.9193 61.1258 25.7026C60.5874 25.4859 60.0109 25.38 59.4308 25.3911V25.3911ZM59.4308 32.4552C58.8977 32.4925 58.3657 32.3684 57.904 32.0988C57.4423 31.8292 57.0722 31.4267 56.8419 30.9435C56.6115 30.4604 56.5316 29.919 56.6124 29.3898C56.6932 28.8605 56.931 28.3678 57.295 27.9758C57.659 27.5838 58.1322 27.3105 58.6532 27.1916C59.1743 27.0726 59.719 27.1134 60.2165 27.3088C60.7141 27.5041 61.1415 27.8449 61.4432 28.2868C61.7449 28.7287 61.9069 29.2514 61.9082 29.7868C61.9248 30.126 61.8735 30.4652 61.7572 30.7842C61.6409 31.1033 61.4621 31.3958 61.2312 31.6445C61.0003 31.8932 60.722 32.0931 60.4128 32.2323C60.1036 32.3715 59.7697 32.4473 59.4308 32.4552ZM47.9934 26.746V28.6077H52.4527C52.3828 29.4846 52.019 30.312 51.4205 30.9555C50.9731 31.4121 50.4351 31.7696 49.8412 32.0048C49.2473 32.24 48.6107 32.3476 47.9727 32.3207C46.6586 32.3207 45.3983 31.7977 44.4691 30.8667C43.5399 29.9356 43.0179 28.6729 43.0179 27.3562C43.0179 26.0396 43.5399 24.7768 44.4691 23.8458C45.3983 22.9148 46.6586 22.3918 47.9727 22.3918C49.2325 22.373 50.449 22.8523 51.3585 23.726L52.6695 22.4124C52.0542 21.8028 51.3237 21.3222 50.5208 20.999C49.7178 20.6758 48.8586 20.5163 47.9934 20.5301C47.0757 20.4943 46.1602 20.6445 45.3019 20.9717C44.4435 21.2989 43.6599 21.7963 42.998 22.4342C42.3361 23.0721 41.8095 23.8372 41.4499 24.6839C41.0902 25.5306 40.9048 26.4413 40.9048 27.3614C40.9048 28.2816 41.0902 29.1923 41.4499 30.0389C41.8095 30.8856 42.3361 31.6508 42.998 32.2887C43.6599 32.9265 44.4435 33.424 45.3019 33.7512C46.1602 34.0783 47.0757 34.2285 47.9934 34.1928C48.8764 34.2281 49.7569 34.0759 50.577 33.7461C51.3971 33.4164 52.1384 32.9165 52.7521 32.2794C53.8361 31.0862 54.4137 29.517 54.3624 27.9044C54.3661 27.5163 54.335 27.1286 54.2695 26.746H47.9934ZM94.765 28.194C94.4958 27.4004 93.9923 26.7075 93.3214 26.207C92.6504 25.7065 91.8435 25.422 91.0075 25.3911C90.4429 25.39 89.884 25.505 89.3655 25.7289C88.8469 25.9527 88.3797 26.2808 87.9927 26.6928C87.6057 27.1048 87.3072 27.5919 87.1155 28.1241C86.9239 28.6562 86.8432 29.2221 86.8785 29.7868C86.8697 30.7309 87.1659 31.6526 87.723 32.4141C88.2801 33.1756 89.0681 33.7361 89.9694 34.0119C90.8706 34.2877 91.8367 34.264 92.7234 33.9442C93.61 33.6245 94.3697 33.026 94.8888 32.238L93.3921 31.2037C93.1689 31.5763 92.8525 31.8841 92.474 32.0963C92.0956 32.3086 91.6683 32.418 91.2346 32.4138C90.7872 32.4323 90.3447 32.3148 89.9652 32.0767C89.5857 31.8386 89.2869 31.491 89.1082 31.0796L94.9817 28.6491L94.765 28.194ZM88.7779 29.6627C88.7569 29.3414 88.8002 29.0192 88.9051 28.7149C89.01 28.4106 89.1745 28.1303 89.3889 27.8905C89.6032 27.6506 89.8632 27.4561 90.1535 27.3182C90.4439 27.1803 90.7588 27.1018 91.0798 27.0873C91.4124 27.067 91.7436 27.1455 92.0319 27.3129C92.3202 27.4803 92.5527 27.7292 92.7004 28.0285L88.7779 29.6627ZM84.0088 33.9239H85.9392V20.9955H84.0088V33.9239ZM80.8501 26.3737H80.7779C80.4895 26.0446 80.1336 25.7819 79.7345 25.6034C79.3355 25.4249 78.9026 25.3348 78.4656 25.3394C77.3375 25.3942 76.2738 25.8818 75.4947 26.7011C74.7157 27.5204 74.2812 28.6086 74.2812 29.7402C74.2812 30.8718 74.7157 31.96 75.4947 32.7793C76.2738 33.5987 77.3375 34.0862 78.4656 34.141C78.9033 34.1498 79.3374 34.0617 79.7371 33.8829C80.1368 33.7041 80.4922 33.4391 80.7779 33.1068H80.8501V33.7377C80.8501 35.4235 79.9521 36.3234 78.5069 36.3234C78.0241 36.3127 77.5554 36.1586 77.1603 35.8805C76.7651 35.6025 76.4613 35.213 76.2875 34.7616L74.6153 35.4546C74.9245 36.2326 75.462 36.8983 76.1569 37.3637C76.8517 37.829 77.6712 38.0722 78.5069 38.0609C80.7675 38.0609 82.6359 36.7267 82.6359 33.4791V25.6497H80.8501V26.3737ZM78.6308 32.4552C77.9544 32.4129 77.3196 32.114 76.8556 31.6192C76.3916 31.1243 76.1333 30.4709 76.1333 29.7919C76.1333 29.113 76.3916 28.4596 76.8556 27.9647C77.3196 27.4699 77.9544 27.171 78.6308 27.1287C78.9613 27.143 79.2857 27.2238 79.5844 27.3662C79.8832 27.5087 80.1503 27.7099 80.3699 27.9579C80.5895 28.2058 80.757 28.4956 80.8626 28.8098C80.9681 29.124 81.0095 29.4562 80.9843 29.7868C81.0125 30.1185 80.9732 30.4524 80.8689 30.7685C80.7645 31.0845 80.5973 31.376 80.3773 31.6255C80.1573 31.8749 79.8891 32.0771 79.5889 32.2197C79.2887 32.3623 78.9628 32.4424 78.6308 32.4552V32.4552ZM103.808 20.9955H99.183V33.9239H101.113V29.0214H103.808C104.358 29.061 104.91 28.9866 105.43 28.8029C105.95 28.6192 106.427 28.33 106.831 27.9535C107.235 27.577 107.557 27.1212 107.777 26.6145C107.997 26.1078 108.111 25.5611 108.111 25.0085C108.111 24.4558 107.997 23.9091 107.777 23.4024C107.557 22.8957 107.235 22.4399 106.831 22.0634C106.427 21.6869 105.95 21.3977 105.43 21.214C104.91 21.0303 104.358 20.9559 103.808 20.9955V20.9955ZM103.808 27.2011H101.113V22.7951H103.849C104.139 22.7951 104.426 22.8524 104.694 22.9636C104.962 23.0748 105.206 23.2379 105.411 23.4434C105.616 23.6489 105.779 23.8929 105.89 24.1615C106.001 24.43 106.058 24.7178 106.058 25.0085C106.058 25.2991 106.001 25.5869 105.89 25.8555C105.779 26.124 105.616 26.368 105.411 26.5735C105.206 26.779 104.962 26.9421 104.694 27.0533C104.426 27.1645 104.139 27.2218 103.849 27.2218L103.808 27.2011ZM115.72 25.3498C115.017 25.3063 114.317 25.4703 113.706 25.8214C113.095 26.1725 112.6 26.6953 112.282 27.3252L113.986 28.0389C114.158 27.728 114.416 27.4736 114.729 27.3066C115.042 27.1396 115.397 27.067 115.751 27.0977C115.996 27.069 116.244 27.0895 116.481 27.158C116.718 27.2265 116.939 27.3416 117.131 27.4966C117.324 27.6516 117.483 27.8434 117.6 28.0608C117.718 28.2782 117.791 28.5169 117.815 28.7628V28.887C117.195 28.56 116.504 28.3896 115.802 28.3905C113.965 28.3905 112.086 29.4248 112.086 31.3072C112.104 31.7073 112.203 32.0996 112.375 32.4609C112.548 32.8222 112.791 33.1451 113.09 33.4105C113.39 33.6758 113.739 33.8781 114.118 34.0053C114.497 34.1326 114.898 34.1823 115.297 34.1514C115.781 34.1782 116.264 34.0755 116.695 33.8538C117.127 33.6321 117.492 33.2993 117.753 32.8896H117.815V33.9239H119.673V28.949C119.673 26.684 117.96 25.3705 115.761 25.3705L115.72 25.3498ZM115.482 32.4345C114.853 32.4345 113.975 32.1139 113.975 31.3382C113.975 30.3039 115.069 29.9523 116.04 29.9523C116.653 29.9371 117.259 30.0871 117.795 30.3867C117.73 30.9483 117.464 31.4674 117.046 31.8478C116.629 32.2281 116.088 32.4439 115.524 32.4552L115.482 32.4345ZM126.445 25.6497L124.236 31.2554H124.174L121.882 25.6497H119.818L123.255 33.4895L121.294 37.8437H123.307L128.592 25.6497H126.445ZM109.103 33.9239H111.023V20.9955H109.103V33.9239Z" fill="white"/>
<path d="M9.4896 10.6942C9.14944 11.0972 8.97588 11.6152 9.00444 12.1422V35.0202C8.96932 35.5481 9.14369 36.0685 9.4896 36.4682L9.56186 36.5509L22.3515 23.7363V23.4261L9.56186 10.6218L9.4896 10.6942Z" fill="url(#paint0_linear_302_6)"/>
<path d="M26.5843 28.008L22.3521 23.7365V23.4262L26.5843 19.1547L26.6772 19.2167L31.7456 22.092C33.1908 22.9091 33.1908 24.2536 31.7456 25.081L26.6979 27.9563L26.5843 28.008Z" fill="url(#paint1_linear_302_6)"/>
<path d="M26.7083 27.9459L22.3522 23.5813L9.49023 36.4683C9.78192 36.7284 10.1553 36.8781 10.5456 36.8913C10.9358 36.9045 11.3184 36.7805 11.627 36.5407L26.7083 27.9459" fill="url(#paint2_linear_302_6)"/>
<path d="M26.7083 19.2167L11.627 10.6323C11.3205 10.3891 10.9382 10.2621 10.5473 10.2734C10.1565 10.2848 9.78222 10.4338 9.49023 10.6943L22.3522 23.5813L26.7083 19.2167Z" fill="url(#paint3_linear_302_6)"/>
<path opacity="0.2" d="M26.5844 27.8528L11.627 36.3855C11.3297 36.6103 10.9673 36.732 10.5947 36.732C10.2222 36.732 9.85984 36.6103 9.56249 36.3855V36.3855L9.49023 36.4579L9.56249 36.5406C9.85984 36.7655 10.2222 36.8871 10.5947 36.8871C10.9673 36.8871 11.3297 36.7655 11.627 36.5406L26.7083 27.9459L26.5844 27.8528Z" fill="black"/>
<path opacity="0.12" d="M9.49039 36.3234C9.15882 35.9132 8.99633 35.3915 9.0362 34.8651V35.0203C9.00107 35.5481 9.17544 36.0685 9.52136 36.4682L9.59362 36.3958L9.49039 36.3234Z" fill="black"/>
<path opacity="0.12" d="M31.7458 24.9258L26.5845 27.8528L26.6774 27.9459L31.7458 25.0706C32.045 24.9439 32.3045 24.7387 32.497 24.4766C32.6896 24.2145 32.8081 23.9052 32.84 23.5813C32.7754 23.8756 32.6428 24.1506 32.4527 24.3842C32.2627 24.6177 32.0205 24.8033 31.7458 24.9258Z" fill="black"/>
<path opacity="0.25" d="M11.6268 10.7771L31.7455 22.2368C32.0203 22.3593 32.2624 22.5449 32.4525 22.7784C32.6425 23.012 32.7752 23.287 32.8397 23.5813C32.8078 23.2574 32.6894 22.9481 32.4968 22.686C32.3042 22.4239 32.0447 22.2187 31.7455 22.092L11.6268 10.6323C10.192 9.80485 9.00488 10.4875 9.00488 12.1423V12.2974C9.03585 10.6426 10.192 9.95999 11.6268 10.7771Z" fill="white"/>
<path d="M42.1818 17.6549H41.4282V15.5863H42.0682C42.3562 15.2731 42.5727 14.9009 42.7028 14.4955C42.8329 14.0901 42.8735 13.6612 42.8218 13.2385V10.1357H46.9508V15.576H47.6424V17.6445H46.8785V16.3414H42.1818V17.6549ZM43.6166 13.2385C43.6627 14.0694 43.4576 14.8948 43.0282 15.607H46.125V10.9011H43.6166V13.2385Z" fill="white" stroke="white" stroke-width="0.149533" stroke-miterlimit="10"/>
<path d="M53.8464 15.5347C53.5491 15.8333 53.196 16.0703 52.8071 16.2319C52.4183 16.3936 52.0015 16.4768 51.5805 16.4768C51.1596 16.4768 50.7428 16.3936 50.354 16.2319C49.9651 16.0703 49.612 15.8333 49.3147 15.5347C48.7242 14.9167 48.3945 14.0942 48.3945 13.2386C48.3945 12.383 48.7242 11.5605 49.3147 10.9425C49.612 10.6439 49.9651 10.4069 50.354 10.2453C50.7428 10.0836 51.1596 10.0004 51.5805 10.0004C52.0015 10.0004 52.4183 10.0836 52.8071 10.2453C53.196 10.4069 53.5491 10.6439 53.8464 10.9425C54.1446 11.2445 54.3795 11.6032 54.5372 11.9976C54.695 12.3919 54.7725 12.8138 54.7651 13.2386C54.7773 13.664 54.702 14.0873 54.544 14.4823C54.3859 14.8773 54.1485 15.2355 53.8464 15.5347V15.5347ZM49.8928 15.0175C50.1103 15.2439 50.3719 15.4231 50.6613 15.5441C50.9507 15.665 51.2618 15.7252 51.5754 15.7208C51.8892 15.7271 52.2009 15.6678 52.4906 15.5467C52.7803 15.4256 53.0416 15.2454 53.258 15.0175C53.7034 14.5326 53.9506 13.8976 53.9506 13.2386C53.9506 12.5796 53.7034 11.9446 53.258 11.4597C53.0416 11.2318 52.7803 11.0516 52.4906 10.9305C52.2009 10.8094 51.8892 10.7501 51.5754 10.7564C51.2618 10.752 50.9507 10.8122 50.6613 10.9331C50.3719 11.0541 50.1103 11.2333 49.8928 11.4597C49.4539 11.9478 49.2111 12.5816 49.2111 13.2386C49.2111 13.8956 49.4539 14.5294 49.8928 15.0175Z" fill="white" stroke="white" stroke-width="0.149533" stroke-miterlimit="10"/>
<path d="M58.7702 16.4758C58.3525 16.4824 57.9378 16.4042 57.5511 16.246C57.1644 16.0878 56.8136 15.8529 56.5199 15.5553C55.9242 14.9316 55.5918 14.1017 55.5918 13.2385C55.5918 12.3753 55.9242 11.5454 56.5199 10.9218C56.8184 10.6191 57.1759 10.3812 57.5702 10.2228C57.9644 10.0645 58.3869 9.98905 58.8115 10.0013C59.2436 9.98903 59.6728 10.0758 60.0664 10.2551C60.46 10.4343 60.8075 10.7013 61.0824 11.0355L60.5353 11.5734C60.3325 11.3121 60.0701 11.1035 59.7702 10.9649C59.4702 10.8263 59.1414 10.7619 58.8115 10.777C58.4937 10.7689 58.1777 10.8262 57.883 10.9454C57.5882 11.0646 57.321 11.2431 57.0979 11.4699C56.6533 11.9594 56.4069 12.5974 56.4069 13.2592C56.4069 13.9211 56.6533 14.5591 57.0979 15.0485C57.321 15.2753 57.5882 15.4539 57.883 15.5731C58.1777 15.6923 58.4937 15.7496 58.8115 15.7415C59.1662 15.7314 59.5144 15.6438 59.8317 15.4848C60.1491 15.3258 60.428 15.0992 60.6489 14.821L61.2063 15.3691C60.9235 15.7087 60.5716 15.9837 60.1741 16.1759C59.7349 16.3814 59.2548 16.484 58.7702 16.4758Z" fill="white" stroke="white" stroke-width="0.149533" stroke-miterlimit="10"/>
<path d="M64.447 16.3414H63.6522V10.9011H61.918V10.1357H66.1709V10.9011H64.447V16.3414Z" fill="white" stroke="white" stroke-width="0.149533" stroke-miterlimit="10"/>
<path d="M71.6421 10.1357L69.2988 15.3691C69.242 15.579 69.1403 15.7739 69.0008 15.9404C68.8613 16.107 68.6874 16.2411 68.491 16.3336C68.2946 16.4261 68.0805 16.4747 67.8635 16.476C67.6465 16.4774 67.4318 16.4314 67.2343 16.3413L67.4408 15.607C67.5671 15.6781 67.7088 15.7172 67.8537 15.7208C68.0064 15.7285 68.1578 15.6887 68.2872 15.607C68.4126 15.5025 68.5087 15.367 68.5659 15.214L68.793 14.7175L66.7285 10.1357H67.6679L69.1956 13.6936L70.7027 10.1357H71.6421Z" fill="white" stroke="white" stroke-width="0.149533" stroke-miterlimit="10"/>
<path d="M72.54 16.3414V10.1357H77.0201V16.3414H76.2252V10.9011H73.3349V16.3414H72.54Z" fill="white" stroke="white" stroke-width="0.149533" stroke-miterlimit="10"/>
<path d="M78.4346 16.3414V10.1357H79.2294V12.7938H82.3262V10.1357H83.1313V16.3414H82.3262V13.5385H79.2294V16.3414H78.4346Z" fill="white" stroke="white" stroke-width="0.149533" stroke-miterlimit="10"/>
<path d="M89.614 15.5347C89.3158 15.8336 88.9618 16.0708 88.5722 16.2326C88.1825 16.3944 87.7648 16.4777 87.343 16.4777C86.9212 16.4777 86.5035 16.3944 86.1139 16.2326C85.7242 16.0708 85.3702 15.8336 85.0721 15.5347C84.4815 14.9167 84.1519 14.0942 84.1519 13.2386C84.1519 12.383 84.4815 11.5605 85.0721 10.9425C85.3693 10.6439 85.7225 10.4069 86.1113 10.2453C86.5001 10.0836 86.9169 10.0004 87.3379 10.0004C87.7588 10.0004 88.1756 10.0836 88.5644 10.2453C88.9533 10.4069 89.3064 10.6439 89.6037 10.9425C90.1895 11.5629 90.516 12.3845 90.516 13.2386C90.516 14.0927 90.1895 14.9143 89.6037 15.5347H89.614ZM85.6604 15.0175C85.8768 15.2454 86.1381 15.4256 86.4278 15.5467C86.7175 15.6678 87.0292 15.7271 87.343 15.7208C87.6566 15.7252 87.9677 15.665 88.2571 15.5441C88.5465 15.4231 88.8081 15.2439 89.0256 15.0175C89.4645 14.5294 89.7073 13.8956 89.7073 13.2386C89.7073 12.5816 89.4645 11.9478 89.0256 11.4597C88.8081 11.2333 88.5465 11.0541 88.2571 10.9331C87.9677 10.8122 87.6566 10.752 87.343 10.7564C87.0292 10.7501 86.7175 10.8094 86.4278 10.9305C86.1381 11.0516 85.8768 11.2318 85.6604 11.4597C85.215 11.9446 84.9678 12.5796 84.9678 13.2386C84.9678 13.8976 85.215 14.5326 85.6604 15.0175V15.0175Z" fill="white" stroke="white" stroke-width="0.149533" stroke-miterlimit="10"/>
<path d="M93.7739 16.3414V10.1358H96.0139C96.4783 10.1312 96.9276 10.3009 97.2733 10.6116C97.4458 10.7616 97.5833 10.9477 97.676 11.1568C97.7688 11.3659 97.8145 11.5929 97.8101 11.8217C97.8126 12.1003 97.7336 12.3735 97.583 12.6077C97.4306 12.8298 97.2198 13.0052 96.9739 13.1145V13.1145C97.2719 13.2166 97.5338 13.4035 97.7275 13.6523C97.9172 13.9058 98.0188 14.2146 98.0165 14.5315C98.0218 14.7699 97.9746 15.0066 97.8782 15.2247C97.7819 15.4427 97.6388 15.6369 97.4591 15.7933C97.1008 16.1273 96.6271 16.309 96.1378 16.3001L93.7739 16.3414ZM94.5688 12.7939H96.0139C96.1492 12.8017 96.2844 12.7788 96.4095 12.7269C96.5347 12.675 96.6464 12.5953 96.7365 12.494C96.9116 12.3221 97.0117 12.0879 97.0152 11.8424C97.025 11.5961 96.94 11.3554 96.7778 11.1701C96.691 11.0737 96.584 10.9977 96.4644 10.9476C96.3448 10.8975 96.2157 10.8746 96.0862 10.8805H94.5997L94.5688 12.7939ZM94.5688 15.5761H96.1791C96.3189 15.5808 96.458 15.5545 96.5865 15.4991C96.715 15.4436 96.8296 15.3605 96.9223 15.2555C97.1006 15.0647 97.2001 14.8135 97.201 14.5522C97.1948 14.293 97.0916 14.0457 96.912 13.8592C96.8125 13.7545 96.6922 13.6719 96.5588 13.6167C96.4255 13.5614 96.282 13.5348 96.1378 13.5386H94.5688V15.5761Z" fill="white" stroke="white" stroke-width="0.149533" stroke-miterlimit="10"/>
<defs>
<linearGradient id="paint0_linear_302_6" x1="21.2161" y1="11.9043" x2="3.86108" y2="29.2256" gradientUnits="userSpaceOnUse">
<stop stop-color="#00A0FF"/>
<stop offset="0.01" stop-color="#00A1FF"/>
<stop offset="0.26" stop-color="#00BEFF"/>
<stop offset="0.51" stop-color="#00D2FF"/>
<stop offset="0.76" stop-color="#00DFFF"/>
<stop offset="1" stop-color="#00E3FF"/>
</linearGradient>
<linearGradient id="paint1_linear_302_6" x1="33.6346" y1="23.5813" x2="8.66431" y2="23.5813" gradientUnits="userSpaceOnUse">
<stop stop-color="#FFE000"/>
<stop offset="0.41" stop-color="#FFBD00"/>
<stop offset="0.78" stop-color="#FFA500"/>
<stop offset="1" stop-color="#FF9C00"/>
</linearGradient>
<linearGradient id="paint2_linear_302_6" x1="24.3444" y1="25.9601" x2="0.804553" y2="49.4439" gradientUnits="userSpaceOnUse">
<stop stop-color="#FF3A44"/>
<stop offset="1" stop-color="#C31162"/>
</linearGradient>
<linearGradient id="paint3_linear_302_6" x1="6.24895" y1="3.08211" x2="16.7571" y2="13.5698" gradientUnits="userSpaceOnUse">
<stop stop-color="#32A071"/>
<stop offset="0.07" stop-color="#2DA771"/>
<stop offset="0.48" stop-color="#15CF74"/>
<stop offset="0.8" stop-color="#06E775"/>
<stop offset="1" stop-color="#00F076"/>
</linearGradient>
</defs>
</svg>
