<svg width="117" height="30" viewBox="0 0 117 30" fill="none" xmlns="http://www.w3.org/2000/svg">
<path d="M24.5176 9.63672C24.5176 8.98828 24.2637 8.48047 23.7559 8.11328C23.248 7.73828 22.5762 7.55078 21.7402 7.55078C20.9902 7.55078 20.3652 7.73828 19.8652 8.11328C19.373 8.48047 19.127 8.96094 19.127 9.55469H15.6113C15.6113 8.63281 15.8691 7.80469 16.3848 7.07031C16.9082 6.32813 17.6465 5.75 18.5996 5.33594C19.5605 4.92188 20.6074 4.71484 21.7402 4.71484C23.709 4.71484 25.252 5.13672 26.3691 5.98047C27.4863 6.82422 28.0449 8.01953 28.0449 9.56641C28.0449 10.3242 27.8145 11.0273 27.3535 11.6758C26.9004 12.3242 26.252 12.8438 25.4082 13.2344C26.3457 13.5625 27.0645 14.0625 27.5645 14.7344C28.0645 15.3984 28.3145 16.2266 28.3145 17.2188C28.3145 18.75 27.7129 19.9688 26.5098 20.875C25.3145 21.7734 23.7246 22.2227 21.7402 22.2227C20.498 22.2227 19.3809 22.0117 18.3887 21.5898C17.3965 21.1602 16.6426 20.5781 16.127 19.8438C15.6191 19.1016 15.3652 18.2422 15.3652 17.2656H18.9043C18.9043 17.875 19.1699 18.3867 19.7012 18.8008C20.2324 19.207 20.9121 19.4102 21.7402 19.4102C22.6777 19.4102 23.416 19.1992 23.9551 18.7773C24.502 18.3555 24.7754 17.8203 24.7754 17.1719C24.7754 16.2812 24.5332 15.6445 24.0488 15.2617C23.5645 14.8711 22.8574 14.6758 21.9277 14.6758H19.8301V11.9219H21.998C23.6777 11.8984 24.5176 11.1367 24.5176 9.63672ZM38.041 22C37.8848 21.6953 37.7715 21.3164 37.7012 20.8633C36.8809 21.7773 35.8145 22.2344 34.502 22.2344C33.2598 22.2344 32.2285 21.875 31.4082 21.1562C30.5957 20.4375 30.1895 19.5312 30.1895 18.4375C30.1895 17.0938 30.6855 16.0625 31.6777 15.3438C32.6777 14.625 34.1191 14.2617 36.002 14.2539H37.5605V13.5273C37.5605 12.9414 37.4082 12.4727 37.1035 12.1211C36.8066 11.7695 36.334 11.5938 35.6855 11.5938C35.1152 11.5938 34.666 11.7305 34.3379 12.0039C34.0176 12.2773 33.8574 12.6523 33.8574 13.1289H30.4707C30.4707 12.3945 30.6973 11.7148 31.1504 11.0898C31.6035 10.4648 32.2441 9.97656 33.0723 9.625C33.9004 9.26562 34.8301 9.08594 35.8613 9.08594C37.4238 9.08594 38.6621 9.48047 39.5762 10.2695C40.498 11.0508 40.959 12.1523 40.959 13.5742V19.0703C40.9668 20.2734 41.1348 21.1836 41.4629 21.8008V22H38.041ZM35.2402 19.6445C35.7402 19.6445 36.2012 19.5352 36.623 19.3164C37.0449 19.0898 37.3574 18.7891 37.5605 18.4141V16.2344H36.2949C34.5996 16.2344 33.6973 16.8203 33.5879 17.9922L33.5762 18.1914C33.5762 18.6133 33.7246 18.9609 34.0215 19.2344C34.3184 19.5078 34.7246 19.6445 35.2402 19.6445ZM49.8535 10.0234C51.4785 10.0234 52.7754 10.5625 53.7441 11.6406C54.7129 12.7188 55.1973 14.1836 55.1973 16.0352V16.1992C55.1973 18.0273 54.6582 19.4922 53.5801 20.5938C52.502 21.6953 51.0527 22.2461 49.2324 22.2461C47.4043 22.2461 45.9473 21.6523 44.8613 20.4648C43.7832 19.2695 43.2441 17.6484 43.2441 15.6016V15.0391C43.2598 12.1875 43.7402 9.95703 44.6855 8.34766C45.6387 6.73047 47.0684 5.71094 48.9746 5.28906C49.9746 5.07031 50.6191 4.85547 50.9082 4.64453C51.1973 4.42578 51.3418 4.125 51.3418 3.74219H54.084C54.084 4.96875 53.752 5.89062 53.0879 6.50781C52.4316 7.125 51.2598 7.60156 49.5723 7.9375C48.5723 8.14062 47.7832 8.53516 47.2051 9.12109C46.627 9.70703 46.2363 10.5312 46.0332 11.5938C47.1113 10.5469 48.3848 10.0234 49.8535 10.0234ZM49.209 12.7656C48.4043 12.7656 47.7715 13.0352 47.3105 13.5742C46.8574 14.1133 46.6309 14.9883 46.6309 16.1992C46.6309 17.2773 46.8535 18.1016 47.2988 18.6719C47.7441 19.2344 48.3887 19.5156 49.2324 19.5156C50.0527 19.5156 50.6855 19.2383 51.1309 18.6836C51.5762 18.1289 51.8027 17.3125 51.8105 16.2344V15.9531C51.8105 14.9141 51.5801 14.125 51.1191 13.5859C50.666 13.0391 50.0293 12.7656 49.209 12.7656ZM63.0605 22.2344C61.2012 22.2344 59.6855 21.6641 58.5137 20.5234C57.3496 19.3828 56.7676 17.8633 56.7676 15.9648V15.6367C56.7676 14.3633 57.0137 13.2266 57.5059 12.2266C57.998 11.2188 58.6934 10.4453 59.5918 9.90625C60.498 9.35938 61.5293 9.08594 62.6855 9.08594C64.4199 9.08594 65.7832 9.63281 66.7754 10.7266C67.7754 11.8203 68.2754 13.3711 68.2754 15.3789V16.7617H60.2012C60.3105 17.5898 60.6387 18.2539 61.1855 18.7539C61.7402 19.2539 62.4395 19.5039 63.2832 19.5039C64.5879 19.5039 65.6074 19.0312 66.3418 18.0859L68.0059 19.9492C67.498 20.668 66.8105 21.2305 65.9434 21.6367C65.0762 22.0352 64.1152 22.2344 63.0605 22.2344ZM62.6738 11.8281C62.002 11.8281 61.4551 12.0547 61.0332 12.5078C60.6191 12.9609 60.3535 13.6094 60.2363 14.4531H64.9473V14.1836C64.9316 13.4336 64.7285 12.8555 64.3379 12.4492C63.9473 12.0352 63.3926 11.8281 62.6738 11.8281ZM81.623 15.7773C81.623 17.7305 81.1777 19.2969 80.2871 20.4766C79.4043 21.6484 78.209 22.2344 76.7012 22.2344C75.4199 22.2344 74.3848 21.7891 73.5957 20.8984V26.875H70.209V9.32031H73.3496L73.4668 10.5625C74.2871 9.57812 75.3574 9.08594 76.6777 9.08594C78.2402 9.08594 79.4551 9.66406 80.3223 10.8203C81.1895 11.9766 81.623 13.5703 81.623 15.6016V15.7773ZM78.2363 15.5312C78.2363 14.3516 78.0254 13.4414 77.6035 12.8008C77.1895 12.1602 76.584 11.8398 75.7871 11.8398C74.7246 11.8398 73.9941 12.2461 73.5957 13.0586V18.25C74.0098 19.0859 74.748 19.5039 75.8105 19.5039C77.4277 19.5039 78.2363 18.1797 78.2363 15.5312ZM88.3262 17.207L90.6699 9.32031H94.3027L89.2051 23.9688L88.9238 24.6367C88.166 26.293 86.916 27.1211 85.1738 27.1211C84.6816 27.1211 84.1816 27.0469 83.6738 26.8984V24.332L84.1895 24.3438C84.8301 24.3438 85.3066 24.2461 85.6191 24.0508C85.9395 23.8555 86.1895 23.5312 86.3691 23.0781L86.7676 22.0352L82.3262 9.32031H85.9707L88.3262 17.207Z" fill="#1E2024"/>
<rect width="3.645" height="30" fill="#1E2024"/>
</svg>
