<svg width="117" height="30" viewBox="0 0 117 30" fill="none" xmlns="http://www.w3.org/2000/svg">
<path d="M22.4785 13.8203H19.8301V11.957H21.9395C22.5566 11.957 23.0566 11.8633 23.4395 11.6758C23.8223 11.4805 24.1035 11.207 24.2832 10.8555C24.4629 10.5039 24.5527 10.0898 24.5527 9.61328C24.5527 9.22266 24.4512 8.86328 24.248 8.53516C24.0527 8.20703 23.748 7.94531 23.334 7.75C22.9199 7.54688 22.3926 7.44531 21.752 7.44531C21.2676 7.44531 20.8262 7.53125 20.4277 7.70312C20.0293 7.875 19.7129 8.11719 19.4785 8.42969C19.2441 8.73438 19.127 9.10547 19.127 9.54297H15.623C15.623 8.79297 15.7832 8.12109 16.1035 7.52734C16.4316 6.92578 16.877 6.41797 17.4395 6.00391C18.0098 5.58203 18.666 5.26172 19.4082 5.04297C20.1504 4.82422 20.9316 4.71484 21.752 4.71484C22.7129 4.71484 23.5801 4.82031 24.3535 5.03125C25.127 5.23437 25.791 5.53906 26.3457 5.94531C26.9004 6.35156 27.3262 6.85547 27.623 7.45703C27.9199 8.05859 28.0684 8.75781 28.0684 9.55469C28.0684 10.1406 27.9355 10.6914 27.6699 11.207C27.4043 11.7227 27.0254 12.1758 26.5332 12.5664C26.041 12.957 25.4512 13.2656 24.7637 13.4922C24.0762 13.7109 23.3145 13.8203 22.4785 13.8203ZM19.8301 12.8008H22.4785C23.4082 12.8008 24.2324 12.8984 24.9512 13.0938C25.6777 13.2891 26.291 13.5742 26.791 13.9492C27.2988 14.3242 27.6816 14.7891 27.9395 15.3438C28.2051 15.8906 28.3379 16.5195 28.3379 17.2305C28.3379 18.0273 28.1738 18.7344 27.8457 19.3516C27.5254 19.9688 27.0684 20.4922 26.4746 20.9219C25.8887 21.3516 25.1934 21.6758 24.3887 21.8945C23.5918 22.1133 22.7129 22.2227 21.752 22.2227C20.9863 22.2227 20.2246 22.1289 19.4668 21.9414C18.709 21.7461 18.0215 21.4492 17.4043 21.0508C16.7871 20.6523 16.2949 20.1406 15.9277 19.5156C15.5605 18.8906 15.377 18.1406 15.377 17.2656H18.9043C18.9043 17.6797 19.0254 18.0586 19.2676 18.4023C19.5098 18.7383 19.8457 19.0078 20.2754 19.2109C20.7051 19.4062 21.1973 19.5039 21.752 19.5039C22.4004 19.5039 22.9512 19.4023 23.4043 19.1992C23.8652 18.9961 24.2129 18.7188 24.4473 18.3672C24.6895 18.0078 24.8105 17.6133 24.8105 17.1836C24.8105 16.7227 24.748 16.332 24.623 16.0117C24.498 15.6914 24.3145 15.4297 24.0723 15.2266C23.8301 15.0156 23.5293 14.8633 23.1699 14.7695C22.8184 14.6758 22.4082 14.6289 21.9395 14.6289H19.8301V12.8008ZM37.5723 19.1406V13.4922C37.5723 13.0859 37.5059 12.7383 37.373 12.4492C37.2402 12.1523 37.0332 11.9219 36.752 11.7578C36.4785 11.5938 36.123 11.5117 35.6855 11.5117C35.3105 11.5117 34.9863 11.5781 34.7129 11.7109C34.4395 11.8359 34.2285 12.0195 34.0801 12.2617C33.9316 12.4961 33.8574 12.7734 33.8574 13.0938H30.4824C30.4824 12.5547 30.6074 12.043 30.8574 11.5586C31.1074 11.0742 31.4707 10.6484 31.9473 10.2812C32.4238 9.90625 32.9902 9.61328 33.6465 9.40234C34.3105 9.19141 35.0527 9.08594 35.873 9.08594C36.8574 9.08594 37.7324 9.25 38.498 9.57812C39.2637 9.90625 39.8652 10.3984 40.3027 11.0547C40.748 11.7109 40.9707 12.5312 40.9707 13.5156V18.9414C40.9707 19.6367 41.0137 20.207 41.0996 20.6523C41.1855 21.0898 41.3105 21.4727 41.4746 21.8008V22H38.0645C37.9004 21.6562 37.7754 21.2266 37.6895 20.7109C37.6113 20.1875 37.5723 19.6641 37.5723 19.1406ZM38.0176 14.2773L38.041 16.1875H36.1543C35.709 16.1875 35.3223 16.2383 34.9941 16.3398C34.666 16.4414 34.3965 16.5859 34.1855 16.7734C33.9746 16.9531 33.8184 17.1641 33.7168 17.4062C33.623 17.6484 33.5762 17.9141 33.5762 18.2031C33.5762 18.4922 33.6426 18.7539 33.7754 18.9883C33.9082 19.2148 34.0996 19.3945 34.3496 19.5273C34.5996 19.6523 34.8926 19.7148 35.2285 19.7148C35.7363 19.7148 36.1777 19.6133 36.5527 19.4102C36.9277 19.207 37.2168 18.957 37.4199 18.6602C37.6309 18.3633 37.7402 18.082 37.748 17.8164L38.6387 19.2461C38.5137 19.5664 38.3418 19.8984 38.123 20.2422C37.9121 20.5859 37.6426 20.9102 37.3145 21.2148C36.9863 21.5117 36.5918 21.7578 36.1309 21.9531C35.6699 22.1406 35.123 22.2344 34.4902 22.2344C33.6855 22.2344 32.9551 22.0742 32.2988 21.7539C31.6504 21.4258 31.1348 20.9766 30.752 20.4062C30.377 19.8281 30.1895 19.1719 30.1895 18.4375C30.1895 17.7734 30.3145 17.1836 30.5645 16.668C30.8145 16.1523 31.1816 15.7188 31.666 15.3672C32.1582 15.0078 32.7715 14.7383 33.5059 14.5586C34.2402 14.3711 35.0918 14.2773 36.0605 14.2773H38.0176ZM51.3418 3.74219H54.0723C54.0723 4.375 53.9941 4.91797 53.8379 5.37109C53.6816 5.81641 53.4316 6.19922 53.0879 6.51953C52.7441 6.83203 52.2832 7.09766 51.7051 7.31641C51.127 7.53516 50.4121 7.72266 49.5605 7.87891C48.9043 8.01172 48.334 8.23047 47.8496 8.53516C47.373 8.83984 46.9785 9.25781 46.666 9.78906C46.3613 10.3125 46.1426 10.9766 46.0098 11.7812C45.877 12.5781 45.8301 13.5391 45.8691 14.6641V15.2266L43.2441 15.5898V15.0273C43.252 13.4961 43.3887 12.1641 43.6543 11.0312C43.9277 9.89844 44.3145 8.94531 44.8145 8.17188C45.3145 7.39062 45.916 6.76953 46.6191 6.30859C47.3223 5.83984 48.1035 5.51172 48.9629 5.32422C49.541 5.19922 50.002 5.07812 50.3457 4.96094C50.6973 4.83594 50.9512 4.67969 51.1074 4.49219C51.2637 4.30469 51.3418 4.05469 51.3418 3.74219ZM49.8652 10.0352C50.7246 10.0352 51.4863 10.1836 52.1504 10.4805C52.8145 10.7695 53.373 11.1797 53.8262 11.7109C54.2793 12.2422 54.623 12.8672 54.8574 13.5859C55.0918 14.3047 55.209 15.0898 55.209 15.9414V16.1875C55.209 17.0547 55.0762 17.8594 54.8105 18.6016C54.5527 19.3359 54.1699 19.9766 53.6621 20.5234C53.1543 21.0703 52.5293 21.4961 51.7871 21.8008C51.0449 22.0977 50.1973 22.2461 49.2441 22.2461C48.2832 22.2461 47.4277 22.0859 46.6777 21.7656C45.9355 21.4375 45.3066 20.9805 44.791 20.3945C44.2832 19.8008 43.8965 19.1094 43.6309 18.3203C43.373 17.5234 43.2441 16.6562 43.2441 15.7188V15.4609C43.2441 15.3281 43.3027 15.1992 43.4199 15.0742C43.5449 14.9414 43.6895 14.793 43.8535 14.6289C44.0254 14.4648 44.1777 14.2578 44.3105 14.0078C44.7793 13.1406 45.291 12.4141 45.8457 11.8281C46.4004 11.2344 47.0059 10.7891 47.6621 10.4922C48.3262 10.1875 49.0605 10.0352 49.8652 10.0352ZM49.2207 12.6719C48.5879 12.6719 48.0801 12.8242 47.6973 13.1289C47.3145 13.4258 47.0371 13.8242 46.8652 14.3242C46.7012 14.8164 46.6191 15.3555 46.6191 15.9414V16.1875C46.6191 16.6641 46.666 17.1094 46.7598 17.5234C46.8535 17.9297 47.002 18.293 47.2051 18.6133C47.4082 18.9258 47.6777 19.1719 48.0137 19.3516C48.3496 19.5234 48.7598 19.6094 49.2441 19.6094C49.7129 19.6094 50.1113 19.5234 50.4395 19.3516C50.7754 19.1719 51.0449 18.9258 51.248 18.6133C51.4512 18.293 51.5996 17.9297 51.6934 17.5234C51.7871 17.1094 51.834 16.6641 51.834 16.1875V15.9414C51.834 15.4961 51.7871 15.0781 51.6934 14.6875C51.5996 14.2891 51.4512 13.9414 51.248 13.6445C51.0449 13.3398 50.7754 13.1016 50.4395 12.9297C50.1035 12.7578 49.6973 12.6719 49.2207 12.6719ZM63.0957 22.2344C62.1113 22.2344 61.2285 22.0781 60.4473 21.7656C59.666 21.4453 59.002 21.0039 58.4551 20.4414C57.916 19.8789 57.502 19.2266 57.2129 18.4844C56.9238 17.7344 56.7793 16.9375 56.7793 16.0938V15.625C56.7793 14.6641 56.916 13.7852 57.1895 12.9883C57.4629 12.1914 57.8535 11.5 58.3613 10.9141C58.877 10.3281 59.502 9.87891 60.2363 9.56641C60.9707 9.24609 61.7988 9.08594 62.7207 9.08594C63.6191 9.08594 64.416 9.23438 65.1113 9.53125C65.8066 9.82812 66.3887 10.25 66.8574 10.7969C67.334 11.3438 67.6934 12 67.9355 12.7656C68.1777 13.5234 68.2988 14.3672 68.2988 15.2969V16.7031H58.2207V14.4531H64.9824V14.1953C64.9824 13.7266 64.8965 13.3086 64.7246 12.9414C64.5605 12.5664 64.3105 12.2695 63.9746 12.0508C63.6387 11.832 63.209 11.7227 62.6855 11.7227C62.2402 11.7227 61.8574 11.8203 61.5371 12.0156C61.2168 12.2109 60.9551 12.4844 60.752 12.8359C60.5566 13.1875 60.4082 13.6016 60.3066 14.0781C60.2129 14.5469 60.166 15.0625 60.166 15.625V16.0938C60.166 16.6016 60.2363 17.0703 60.377 17.5C60.5254 17.9297 60.7324 18.3008 60.998 18.6133C61.2715 18.9258 61.5996 19.168 61.9824 19.3398C62.373 19.5117 62.8145 19.5977 63.3066 19.5977C63.916 19.5977 64.4824 19.4805 65.0059 19.2461C65.5371 19.0039 65.9941 18.6406 66.377 18.1562L68.0176 19.9375C67.752 20.3203 67.3887 20.6875 66.9277 21.0391C66.4746 21.3906 65.9277 21.6797 65.2871 21.9062C64.6465 22.125 63.916 22.2344 63.0957 22.2344ZM73.5957 11.7578V26.875H70.2207V9.32031H73.3496L73.5957 11.7578ZM81.623 15.5195V15.7656C81.623 16.6875 81.5137 17.543 81.2949 18.332C81.084 19.1211 80.7715 19.8086 80.3574 20.3945C79.9434 20.9727 79.4277 21.4258 78.8105 21.7539C78.2012 22.0742 77.498 22.2344 76.7012 22.2344C75.9277 22.2344 75.2559 22.0781 74.6855 21.7656C74.1152 21.4531 73.6348 21.0156 73.2441 20.4531C72.8613 19.8828 72.5527 19.2227 72.3184 18.4727C72.084 17.7227 71.9043 16.918 71.7793 16.0586V15.4141C71.9043 14.4922 72.084 13.6484 72.3184 12.8828C72.5527 12.1094 72.8613 11.4414 73.2441 10.8789C73.6348 10.3086 74.1113 9.86719 74.6738 9.55469C75.2441 9.24219 75.9121 9.08594 76.6777 9.08594C77.4824 9.08594 78.1895 9.23828 78.7988 9.54297C79.416 9.84766 79.9316 10.2852 80.3457 10.8555C80.7676 11.4258 81.084 12.1055 81.2949 12.8945C81.5137 13.6836 81.623 14.5586 81.623 15.5195ZM78.2363 15.7656V15.5195C78.2363 14.9805 78.1895 14.4844 78.0957 14.0312C78.0098 13.5703 77.8691 13.168 77.6738 12.8242C77.4863 12.4805 77.2363 12.2148 76.9238 12.0273C76.6191 11.832 76.248 11.7344 75.8105 11.7344C75.3496 11.7344 74.9551 11.8086 74.627 11.957C74.3066 12.1055 74.0449 12.3203 73.8418 12.6016C73.6387 12.8828 73.4863 13.2188 73.3848 13.6094C73.2832 14 73.2207 14.4414 73.1973 14.9336V16.5625C73.2363 17.1406 73.3457 17.6602 73.5254 18.1211C73.7051 18.5742 73.9824 18.9336 74.3574 19.1992C74.7324 19.4648 75.2246 19.5977 75.834 19.5977C76.2793 19.5977 76.6543 19.5 76.959 19.3047C77.2637 19.1016 77.5098 18.8242 77.6973 18.4727C77.8926 18.1211 78.0293 17.7148 78.1074 17.2539C78.1934 16.793 78.2363 16.2969 78.2363 15.7656ZM87.3418 20.5703L90.7051 9.32031H94.3262L89.2285 23.9102C89.1191 24.2305 88.9707 24.5742 88.7832 24.9414C88.6035 25.3086 88.3574 25.6562 88.0449 25.9844C87.7402 26.3203 87.3535 26.5938 86.8848 26.8047C86.4238 27.0156 85.8574 27.1211 85.1855 27.1211C84.8652 27.1211 84.6035 27.1016 84.4004 27.0625C84.1973 27.0234 83.9551 26.9688 83.6738 26.8984V24.4258C83.7598 24.4258 83.8496 24.4258 83.9434 24.4258C84.0371 24.4336 84.127 24.4375 84.2129 24.4375C84.6582 24.4375 85.0215 24.3867 85.3027 24.2852C85.584 24.1836 85.8105 24.0273 85.9824 23.8164C86.1543 23.6133 86.291 23.3477 86.3926 23.0195L87.3418 20.5703ZM85.9355 9.32031L88.6895 18.5078L89.1699 22.082L86.873 22.3281L82.3145 9.32031H85.9355Z" fill="#FEFEFD"/>
<rect width="3.645" height="30" fill="#FEFEFD"/>
</svg>
